HIERARCHY
ROOT Hips
{
	OFFSET -3.958830 18.904000 13.208200
	CHANNELS 6 Xposition Yposition Zposition Zrotation Yrotation Xrotation 
	JOINT LHipJoint
	{
		OFFSET 0.000000 0.000000 0.000000
		CHANNELS 3 Zrotation Yrotation Xrotation
		JOINT LeftUpLeg
		{
			OFFSET 1.800000 -1.400000 0.085000
			CHANNELS 3 Zrotation Yrotation Xrotation
			JOINT LeftLeg
			{
				OFFSET 2.215000 -6.000000 0.000000
				CHANNELS 3 Zrotation Yrotation Xrotation
				JOINT LeftFoot
				{
					OFFSET 2.500000 -6.900000 0.000000
					CHANNELS 3 Zrotation Yrotation Xrotation
					JOINT LeftToeBase
					{
						OFFSET 0.200000 -0.500000 1.950000
						CHANNELS 3 Zrotation Yrotation Xrotation
						End Site
						{
							OFFSET 0.000000 0.000000 0.000000
						}
					}
				}
			}
		}
	}
	JOINT RHipJoint
	{
		OFFSET 0.000000 0.000000 0.000000
		CHANNELS 3 Zrotation Yrotation Xrotation
		JOINT RightUpLeg
		{
			OFFSET -1.800000 -1.400000 0.085000
			CHANNELS 3 Zrotation Yrotation Xrotation
			JOINT RightLeg
			{
				OFFSET -2.215000 -6.000000 0.000000
				CHANNELS 3 Zrotation Yrotation Xrotation
				JOINT RightFoot
				{
					OFFSET -2.500000 -6.900000 0.000000
					CHANNELS 3 Zrotation Yrotation Xrotation
					JOINT RightToeBase
					{
						OFFSET -0.200000 -0.500000 1.950000
						CHANNELS 3 Zrotation Yrotation Xrotation
						End Site
						{
							OFFSET 0.000000 0.000000 0.000000
						}
					}
				}
			}
		}
	}
	JOINT LowerBack
	{
		OFFSET 0.000000 0.000000 0.000000
		CHANNELS 3 Zrotation Yrotation Xrotation
		JOINT Spine
		{
			OFFSET -0.087000 1.940000 -0.288900
			CHANNELS 3 Zrotation Yrotation Xrotation
			JOINT Spine1
			{
				OFFSET 0.000000 1.950000 0.060000
				CHANNELS 3 Zrotation Yrotation Xrotation
				JOINT Neck
				{
					OFFSET 0.000000 0.000000 0.000000
					CHANNELS 3 Zrotation Yrotation Xrotation
					JOINT Neck1
					{
						OFFSET 0.000000 1.600000 0.340000
						CHANNELS 3 Zrotation Yrotation Xrotation
						JOINT Head
						{
							OFFSET 0.000000 1.667000 -0.240000
							CHANNELS 3 Zrotation Yrotation Xrotation
							End Site
							{
								OFFSET 0.000000 0.000000 0.000000
							}
						}
					}
				}
				JOINT LeftShoulder
				{
					OFFSET 0.000000 0.000000 0.000000
					CHANNELS 3 Zrotation Yrotation Xrotation
					JOINT LeftArm
					{
						OFFSET 2.700000 1.550000 -0.730000
						CHANNELS 3 Zrotation Yrotation Xrotation
						JOINT LeftForeArm
						{
							OFFSET 5.450000 0.000000 0.000000
							CHANNELS 3 Zrotation Yrotation Xrotation
							JOINT LeftHand
							{
								OFFSET 3.450000 0.000000 0.000000
								CHANNELS 3 Zrotation Yrotation Xrotation
								JOINT LeftHandIndex1
								{
									OFFSET 0.750000 0.000000 0.000000
									CHANNELS 3 Zrotation Yrotation Xrotation
									End Site
									{
										OFFSET 0.000000 0.000000 0.000000
									}
								}
							}
						}
					}
				}
				JOINT RightShoulder
				{
					OFFSET 0.000000 0.000000 0.000000
					CHANNELS 3 Zrotation Yrotation Xrotation
					JOINT RightArm
					{
						OFFSET -2.700000 1.550000 -0.730000
						CHANNELS 3 Zrotation Yrotation Xrotation
						JOINT RightForeArm
						{
							OFFSET -5.450000 0.000000 0.000000
							CHANNELS 3 Zrotation Yrotation Xrotation
							JOINT RightHand
							{
								OFFSET -3.450000 0.000000 0.000000
								CHANNELS 3 Zrotation Yrotation Xrotation
								JOINT RightHandIndex1
								{
									OFFSET -0.750000 0.000000 0.000000
									CHANNELS 3 Zrotation Yrotation Xrotation
									End Site
									{
										OFFSET 0.000000 0.000000 0.000000
									}
								}
							}
						}
					}
				}
			}
		}
	}
}
MOTION
Frames: 10
Frame Time: 0.016667
-4.744150 17.880930 -4.383450 -18.800937 -18.614580 -10.498668 -14.901889 12.151181 2.310548 17.215083 1.065727 7.725831 -6.801815 5.998842 2.998006 -0.184931 5.948885 2.754254 0.363330 0.188340 0.145660 18.717889 -9.352169 4.759917 -34.341330 0.451427 -28.957075 101.026254 -58.911299 27.929829 -2.686647 -11.369691 0.745158 0.216060 0.516050 0.379290 -4.760388 -1.563091 -8.171281 34.866502 -12.392119 24.337242 -14.799698 -7.190358 16.325497 3.971618 -0.973731 -11.330371 -6.145139 -2.606978 37.370786 -0.729830 -5.325330 -14.371110 16.300808 -30.283315 0.973011 28.890029 -24.127499 -12.681476 45.956131 -50.040996 -17.355477 -4.247017 2.976639 0.481960 0.261610 0.039160 0.243410 -24.879696 25.665677 4.255828 -13.491980 6.559847 -15.085652 -47.716447 56.053738 -19.780925 1.389751 -1.538022 -0.211470 0.463900 0.147430 -0.021130 
-4.859770 18.150440 -4.336480 -18.599711 -18.349665 -12.054925 -14.830254 12.067853 2.110966 18.681358 1.217705 8.827786 -6.820014 6.728813 6.269853 -0.174781 6.247433 2.686206 0.330580 0.160120 0.120470 18.782927 -9.574901 4.820245 -36.177035 1.272841 -27.162362 97.643566 -60.224075 30.848610 -2.602688 -11.342333 0.752305 0.234990 0.598440 0.394980 -4.965803 -0.967560 -8.009077 38.122321 -13.237191 24.851082 -18.112155 -7.464957 17.425330 4.261046 -1.077206 -10.966090 -5.570946 -3.565817 34.007411 -2.922970 -5.293390 -12.248860 18.518022 -27.431517 1.055282 35.503554 -20.625563 -12.967541 46.251705 -46.536411 -15.312130 -4.420351 3.015671 0.401780 0.359040 -0.026110 0.261320 -27.701699 22.543310 4.381967 -13.944867 3.438183 -14.581332 -51.103671 52.570290 -20.117254 1.553278 -1.818314 -0.238790 0.481520 0.159930 -0.011390 
-4.981930 18.398480 -4.283510 -18.498764 -18.746754 -13.074706 -14.787333 12.106024 1.846876 20.924712 1.216780 8.122830 -7.870885 8.446904 13.322939 -0.092049 6.699457 2.490865 0.370910 0.225290 0.121790 18.812671 -9.653701 4.997057 -37.607375 2.461301 -26.608158 93.473018 -62.548660 34.998685 -2.586433 -11.300175 0.750889 0.267320 0.552870 0.369300 -5.078402 -0.699280 -7.925516 40.840982 -14.509630 26.488276 -21.233765 -7.729303 16.418736 4.036419 -1.761672 -11.351480 -6.262944 -3.756904 31.676430 -1.924110 -5.846670 -12.660060 19.774412 -25.504719 1.659537 40.374539 -14.464806 -11.953267 46.010923 -44.864975 -13.416545 -4.433881 3.121138 0.382490 0.318270 -0.013060 0.283860 -28.659779 21.259794 4.445675 -16.198693 0.700579 -14.476706 -51.876706 49.678816 -19.076418 1.816977 -2.045570 -0.214020 0.452810 0.107580 0.006230 
-5.119720 18.610270 -4.225360 -18.094627 -18.539990 -12.604409 -14.827685 12.109927 1.801448 23.456761 0.661302 4.308862 -10.662522 11.537504 22.729584 0.059747 7.713729 2.034509 0.438410 0.287470 0.213970 18.798598 -9.468683 5.123470 -39.626938 2.364614 -26.946157 89.458578 -63.188890 37.561541 -2.645268 -11.266071 0.736204 0.270080 0.414400 0.345700 -4.976524 -0.986657 -8.036675 41.973886 -15.294252 27.879567 -22.969122 -7.137867 12.952498 3.950967 -1.677882 -11.905861 -6.257833 -4.263995 31.449218 -1.396730 -5.889370 -15.788990 20.504113 -23.154470 1.467953 44.865977 -12.319057 -10.589446 42.556790 -42.187804 -10.289961 -4.264306 3.107702 0.479860 0.199940 0.089700 0.275740 -29.423565 19.690586 4.788058 -16.792941 -2.341703 -14.216662 -53.693527 47.249025 -18.387808 2.068322 -2.112739 -0.190720 0.425490 0.038540 -0.026500 
-5.252990 18.808530 -4.179750 -16.841962 -18.840364 -12.385240 -14.948003 11.939352 2.139018 25.892305 -0.038375 0.396873 -14.616635 15.991406 31.644791 0.445485 9.442043 1.410257 0.329930 0.142970 0.173640 18.752461 -9.033357 5.154939 -42.202416 1.985072 -27.615193 86.718219 -62.487400 38.551724 -2.613776 -11.323613 0.733790 0.167070 0.415740 0.322290 -4.759488 -1.532360 -8.286907 40.598010 -15.244066 29.752341 -22.739569 -6.542471 10.442346 4.098616 -1.707292 -13.005994 -6.597281 -4.153459 31.843208 -2.159940 -5.575480 -13.949710 20.435386 -22.304893 2.168012 47.054821 -8.869214 -9.152890 41.299727 -38.081453 -8.239218 -4.344539 3.081612 0.493760 0.195410 0.066960 0.243550 -29.721444 19.898626 5.493514 -18.558566 -5.399187 -14.157606 -54.487858 43.775398 -16.876877 2.356008 -2.170343 -0.219470 0.397680 0.068040 -0.042040 
-5.401080 18.972550 -4.143360 -15.184869 -18.670136 -12.232197 -15.137269 11.630943 2.876519 28.972712 -1.086929 -3.703171 -20.124568 21.877135 39.347622 0.949116 11.504271 0.731923 0.192140 -0.083070 0.170610 18.659609 -8.413043 5.042779 -44.412922 1.534441 -27.341891 83.134207 -60.392230 39.125918 -2.598048 -11.392445 0.714518 0.009640 0.390990 0.301800 -4.384846 -2.357393 -8.689843 37.479907 -14.966455 32.277394 -21.580896 -5.959015 7.238588 4.471349 -1.379486 -14.155618 -6.768210 -3.655710 34.080655 -3.294840 -4.602080 -13.002160 19.610210 -21.797083 2.858540 49.867725 -5.200778 -7.292283 39.217613 -33.388637 -5.967316 -4.378619 2.950376 0.596110 0.156750 0.072100 0.175240 -29.645586 20.570098 6.617744 -20.725458 -8.198146 -13.728402 -54.118731 38.924642 -14.287338 2.611564 -2.090240 -0.279540 0.379340 0.126860 -0.103970 
-5.554870 19.102090 -4.106410 -13.273569 -18.757894 -12.383484 -15.374145 11.190519 3.793363 32.979359 -2.285938 -7.356268 -26.725510 29.389551 46.121637 1.529345 13.476203 0.150721 0.128020 -0.211270 0.190380 18.552967 -7.721601 4.885636 -46.633262 0.814611 -27.194394 79.665933 -58.661637 39.772259 -2.581681 -11.445374 0.661781 -0.085510 0.341260 0.302830 -3.961031 -3.149268 -9.146711 33.250040 -14.113421 35.023592 -19.611308 -5.162576 4.718875 4.647073 -1.128799 -15.104988 -6.738318 -3.361391 35.206806 -3.621680 -4.073500 -12.218390 19.806061 -20.768425 3.375532 50.479044 -1.739383 -5.840883 39.161046 -29.459771 -4.958224 -4.426850 2.929613 0.657270 0.109600 0.085470 0.124170 -30.056598 20.559767 7.431250 -21.770009 -10.976647 -13.530000 -54.422918 33.946951 -12.162289 2.840811 -2.069961 -0.294120 0.322650 0.150170 -0.145080 
-5.721150 19.186140 -4.045030 -11.309843 -18.778281 -10.848605 -15.633373 10.751927 4.728241 36.974558 -3.099486 -11.922321 -34.003439 37.324425 50.276409 1.999053 14.684710 -0.166869 0.066900 -0.299090 0.163570 18.434097 -7.062371 4.718312 -48.365508 -0.585550 -27.831569 77.392580 -55.710789 38.309623 -2.558864 -11.400992 0.653712 -0.185040 0.287200 0.312980 -3.494012 -3.919794 -9.670188 28.486220 -11.859142 35.786089 -16.269311 -3.132037 1.011531 4.476052 -0.728371 -15.707043 -6.563069 -3.071341 37.190795 -2.807640 -3.840350 -12.482160 19.053277 -20.156914 3.654744 51.784744 -1.783616 -5.328743 37.374287 -24.397987 -3.671047 -4.332325 2.859714 0.713600 0.051130 0.124260 0.088660 -28.527556 20.786544 8.126955 -24.766742 -14.085810 -11.162625 -54.056006 31.068033 -10.092439 2.874583 -1.913475 -0.270320 0.263810 0.176590 -0.155140 
-5.877240 19.258690 -4.004060 -9.462058 -19.038286 -10.669860 -15.800555 10.247647 5.481405 40.650382 -3.473260 -15.345545 -39.587345 45.895784 55.071615 2.325639 15.435238 -0.303534 0.108840 -0.224720 0.183230 18.385960 -6.658117 4.560911 -49.268625 -1.023473 -27.649665 74.496237 -52.777680 37.594153 -2.564160 -11.368230 0.672022 -0.158060 0.267640 0.282900 -3.277035 -4.022421 -10.029998 24.549182 -10.519200 37.241945 -14.360245 -1.850582 -0.857622 4.117702 -0.834726 -15.315868 -6.421058 -2.602017 37.027558 -1.137120 -3.529140 -15.671860 18.896105 -18.183793 3.262981 52.843025 -0.917896 -4.839532 37.162170 -19.883521 -3.020670 -4.245144 2.738693 0.759430 0.006670 0.173030 0.111810 -27.340454 19.553391 8.195022 -27.211424 -15.321165 -9.375456 -53.329647 26.707705 -8.204623 2.875873 -1.778773 -0.271460 0.318020 0.143350 -0.148670 
-6.051870 19.295700 -3.931010 -7.331986 -18.652494 -9.770718 -15.983207 9.828434 6.155357 43.953172 -3.606724 -18.806077 -44.564616 54.009031 58.494403 2.431241 15.632607 -0.315260 0.152470 -0.184790 0.238190 18.321851 -6.274150 4.422497 -50.659988 -2.196768 -27.657214 73.076464 -50.237653 35.800791 -2.523888 -11.227722 0.680311 -0.117920 0.245180 0.275920 -2.986008 -4.220846 -10.365978 20.086714 -8.766631 37.184451 -12.246698 -0.403829 -2.696718 4.140970 -0.576856 -15.121661 -5.317886 -2.507676 35.710810 -1.064570 -2.740880 -17.759930 18.980097 -15.933821 2.775901 52.887947 -0.858680 -4.651870 36.944336 -15.280744 -2.590491 -4.218833 2.664848 0.807420 -0.013580 0.197260 0.111040 -27.112645 17.987126 8.196416 -28.063952 -16.348865 -8.306053 -53.089585 22.634720 -6.707910 2.907263 -1.732312 -0.297640 0.341490 0.124980 -0.177860 
